<svg xmlns="http://www.w3.org/2000/svg" width="192" height="192" viewBox="0 0 192 192">
  <rect width="192" height="192" rx="44" fill="#e9f0fa"/>
  <g transform="translate(36,52) scale(1.0)">
    <g fill="#48526b">
      <circle cx="40" cy="58" r="24"/><circle cx="68" cy="48" r="28"/><circle cx="92" cy="60" r="20"/>
      <rect x="36" y="56" width="58" height="30" rx="15"/>
    </g>
    <g fill="#ffffff">
      <circle cx="40" cy="58" r="20.5"/><circle cx="68" cy="48" r="24.5"/><circle cx="92" cy="60" r="16.5"/>
      <rect x="38" y="58" width="54" height="25" rx="12.5"/>
    </g>
    <g fill="#48526b"><circle cx="60" cy="58" r="3"/><circle cx="80" cy="58" r="3"/></g>
    <path d="M62 66 q8 7 16 0" stroke="#48526b" stroke-width="3" stroke-linecap="round" fill="none"/>
    <circle cx="54" cy="64" r="3.5" fill="#ffc4d6"/><circle cx="86" cy="64" r="3.5" fill="#ffc4d6"/>
    <circle cx="60" cy="11" r="6" fill="#fff" stroke="#48526b" stroke-width="2"/>
    <circle cx="69" cy="22" r="6" fill="#fff" stroke="#48526b" stroke-width="2"/>
    <circle cx="51" cy="22" r="6" fill="#fff" stroke="#48526b" stroke-width="2"/>
    <circle cx="60" cy="24" r="4.5" fill="#ffd66b" stroke="#48526b" stroke-width="2"/>
  </g>
</svg>
